<svg id="Filled" height="512" viewBox="0 0 512 512" width="512" xmlns="http://www.w3.org/2000/svg"><path d="m136 72h240v416h-240z" fill="#6a7073"/><path d="m168 24h176v48h-176z" fill="#9aa3a8"/><g fill="#3dc285"><path d="m168 112h176v40h-176z"/><path d="m168 168h176v32h-176z"/><path d="m168 216h176v32h-176z"/><path d="m168 264h176v32h-176z"/><path d="m168 312h176v32h-176z"/><path d="m168 360h176v32h-176z"/><path d="m168 408h176v40h-176z"/></g><path d="m216 192h72l-24 48h40l-72 128 16-96h-40z" fill="#ffd33a"/><path d="m344 16h-176a8 8 0 0 0 -8 8v40h-24a8 8 0 0 0 -8 8v416a8 8 0 0 0 8 8h240a8 8 0 0 0 8-8v-416a8 8 0 0 0 -8-8h-24v-40a8 8 0 0 0 -8-8zm-168 16h160v32h-160zm192 448h-224v-400h224z"/><path d="m168 456h176a8 8 0 0 0 8-8v-336a8 8 0 0 0 -8-8h-176a8 8 0 0 0 -8 8v336a8 8 0 0 0 8 8zm8-16v-32h160v32zm81.194-195.794a8 8 0 0 0 6.806 3.794h26.321l-42.931 76.322 8.5-51.007a8 8 0 0 0 -7.89-9.315h-31.16l6.4-64h51.816l-18.211 36.422a8 8 0 0 0 .349 7.784zm15.485 67.794h63.321v32h-81.321zm9-16 18-32h36.321v32zm27-48 2.294-4.078a8 8 0 0 0 -6.973-11.922h-27.056l8-16h51.056v32zm-15.735-48 2.211-4.422a8 8 0 0 0 -7.155-11.578h-72a8 8 0 0 0 -7.96 7.2l-.88 8.8h-31.16v-32h160v32zm-87.384 16-3.2 32h-26.36v-32zm-4.8 48-.72 7.2a8 8 0 0 0 7.96 8.8h30.557l-2.667 16h-59.89v-32zm32.463 48-5.334 32h-51.889v-32zm-8 48-1.115 6.685a8 8 0 0 0 14.865 5.237l6.706-11.922h90.321v32h-160v-32zm110.777-240v32h-160v-32z"/></svg>