<?xml version="1.0" encoding="iso-8859-1"?>
<!-- Generator: Adobe Illustrator 19.0.0, SVG Export Plug-In . SVG Version: 6.00 Build 0)  -->
<svg version="1.1" id="Capa_1" xmlns="http://www.w3.org/2000/svg" xmlns:xlink="http://www.w3.org/1999/xlink" x="0px" y="0px"
	 viewBox="0 0 437.812 437.812" style="enable-background:new 0 0 437.812 437.812;" xml:space="preserve">
<g>
	<g>
		<path style="fill:#00EFD1;" d="M427.363,52.245v333.322c0,20.198-16.374,36.571-36.571,36.571H47.543
			c-20.198,0-36.571-16.374-36.571-36.571V52.245c0-20.198,16.374-36.571,36.571-36.571h343.249
			C410.99,15.673,427.363,32.047,427.363,52.245z M375.118,369.894V245.029H245.551v124.865H375.118z M375.118,192.784V67.918
			H245.551v124.865H375.118z M192.261,369.894V67.918H62.694v301.976H192.261z"/>
		<g>
			<rect x="245.551" y="245.029" style="fill:#00ACEA;" width="129.567" height="124.865"/>
			<rect x="245.551" y="67.918" style="fill:#00ACEA;" width="129.567" height="124.865"/>
			<rect x="62.694" y="67.918" style="fill:#00ACEA;" width="129.567" height="301.976"/>
		</g>
	</g>
	<g>
		<path style="fill:#083863;" d="M390.792,432.588H47.02c-25.969,0-47.02-21.052-47.02-47.02V52.245
			c0-25.969,21.052-47.02,47.02-47.02h343.771c25.969,0,47.02,21.052,47.02,47.02v333.322
			C437.812,411.536,416.76,432.588,390.792,432.588z M47.02,26.122c-14.427,0-26.122,11.695-26.122,26.122v333.322
			c0,14.427,11.695,26.122,26.122,26.122h343.771c14.427,0,26.122-11.695,26.122-26.122V52.245
			c0-14.427-11.695-26.122-26.122-26.122H47.02z"/>
		<path style="fill:#083863;" d="M192.261,380.343H62.171c-5.771,0-10.449-4.678-10.449-10.449V67.918
			c0-5.771,4.678-10.449,10.449-10.449h130.09c5.771,0,10.449,4.678,10.449,10.449v301.976
			C202.71,375.665,198.032,380.343,192.261,380.343z M72.62,359.445h109.192V78.367H72.62V359.445z"/>
		<path style="fill:#083863;" d="M375.118,203.233h-130.09c-5.771,0-10.449-4.678-10.449-10.449V67.918
			c0-5.771,4.678-10.449,10.449-10.449h130.09c5.771,0,10.449,4.678,10.449,10.449v124.865
			C385.567,198.554,380.889,203.233,375.118,203.233z M255.478,182.335h109.192V78.367H255.478V182.335z"/>
		<path style="fill:#083863;" d="M375.118,380.343h-130.09c-5.771,0-10.449-4.678-10.449-10.449V245.029
			c0-5.771,4.678-10.449,10.449-10.449h130.09c5.771,0,10.449,4.678,10.449,10.449v124.865
			C385.567,375.665,380.889,380.343,375.118,380.343z M255.478,359.445h109.192V255.478H255.478V359.445z"/>
	</g>
</g>
<g>
</g>
<g>
</g>
<g>
</g>
<g>
</g>
<g>
</g>
<g>
</g>
<g>
</g>
<g>
</g>
<g>
</g>
<g>
</g>
<g>
</g>
<g>
</g>
<g>
</g>
<g>
</g>
<g>
</g>
</svg>
