<svg id="Group_1" data-name="Group 1" xmlns="http://www.w3.org/2000/svg" width="19.928" height="23.905" viewBox="0 0 19.928 23.905">
  <path id="Path_6" data-name="Path 6" d="M111.477,93.2a6.157,6.157,0,0,0-4.069,10.769,4.623,4.623,0,0,1,.862,3.074.366.366,0,0,0,.111.287.408.408,0,0,0,.265.111h5.639a.366.366,0,0,0,.265-.111.42.42,0,0,0,.111-.287c0-.022-.111-2.1.862-3.074l.066-.066a6.138,6.138,0,0,0-4.113-10.7Zm3.538,10.194c-.022.022-.066.066-.066.088a5.164,5.164,0,0,0-1.039,3.184h-4.887a5.139,5.139,0,0,0-1.106-3.273,5.385,5.385,0,1,1,7.1,0Z" transform="translate(-101.494 -88.047)" fill="#fff"/>
  <path id="Path_7" data-name="Path 7" d="M209.7,121.6a.376.376,0,0,0,0,.752,4.025,4.025,0,0,1,4.025,4.025.376.376,0,1,0,.752,0A4.757,4.757,0,0,0,209.7,121.6Z" transform="translate(-199.745 -114.877)" fill="#fff"/>
  <path id="Path_8" data-name="Path 8" d="M160.767,358.4h-4.909a.929.929,0,0,0,0,1.858h4.887a.954.954,0,0,0,.951-.929A.934.934,0,0,0,160.767,358.4Zm0,1.084h-4.909a.174.174,0,0,1-.177-.177.163.163,0,0,1,.177-.177h4.887a.174.174,0,0,1,.177.177A.158.158,0,0,1,160.767,359.484Z" transform="translate(-148.352 -338.586)" fill="#fff"/>
  <path id="Path_9" data-name="Path 9" d="M172.507,398.8h-3.45a.929.929,0,1,0,0,1.858h3.45a.934.934,0,0,0,.929-.929A.92.92,0,0,0,172.507,398.8Zm0,1.084h-3.45a.174.174,0,0,1-.177-.177.163.163,0,0,1,.177-.177h3.45a.177.177,0,1,1,0,.354Z" transform="translate(-160.822 -376.753)" fill="#fff"/>
  <path id="Path_10" data-name="Path 10" d="M209.7,3.317a.373.373,0,0,0,.376-.376V.376a.376.376,0,1,0-.752,0V2.941A.388.388,0,0,0,209.7,3.317Z" transform="translate(-199.745)" fill="#fff"/>
  <path id="Path_11" data-name="Path 11" d="M295.135,33.184a.357.357,0,0,0-.509.088L293.211,35.4a.364.364,0,0,0,.089.531.357.357,0,0,0,.2.066.353.353,0,0,0,.31-.177l1.415-2.123A.343.343,0,0,0,295.135,33.184Z" transform="translate(-278.916 -31.283)" fill="#fff"/>
  <path id="Path_12" data-name="Path 12" d="M104.8,33.823a.357.357,0,0,0,.2-.066.387.387,0,0,0,.111-.531L103.74,31.08a.383.383,0,1,0-.641.42l1.371,2.145A.367.367,0,0,0,104.8,33.823Z" transform="translate(-99.331 -29.201)" fill="#fff"/>
  <path id="Path_13" data-name="Path 13" d="M38.761,104.55l-2.233-1.216a.389.389,0,0,0-.509.155.353.353,0,0,0,.155.509l2.233,1.216a.521.521,0,0,0,.177.044.365.365,0,0,0,.332-.2A.389.389,0,0,0,38.761,104.55Z" transform="translate(-35.966 -97.584)" fill="#fff"/>
  <path id="Path_14" data-name="Path 14" d="M345.181,103.488a.389.389,0,0,0-.509-.155l-2.256,1.216a.389.389,0,0,0-.155.509.365.365,0,0,0,.332.2.416.416,0,0,0,.177-.044L345.027,104A.389.389,0,0,0,345.181,103.488Z" transform="translate(-325.292 -97.584)" fill="#fff"/>
</svg>
