<svg id="Layer_1" height="512" viewBox="0 0 512 512" width="512" xmlns="http://www.w3.org/2000/svg" data-name="Layer 1"><path d="m375.51 251.34a120.625 120.625 0 1 1 -22.81-2.16 120.583 120.583 0 0 1 22.81 2.16z" fill="#f8ec7d"/><path d="m336.41 74.45c43.34 45.18 61.55 112.83 39.2 176.37l-.1.52a120.6 120.6 0 0 0 -132.23 169.01l-.22.1-31.09 36.55-137.45-161.45c-10.36-12-19.09-25.64-24.55-40.37-42-109.63 38.73-233.45 162-233.45 50.43 0 93.74 20.72 124.44 52.72zm-49.16 119.64a75.275 75.275 0 1 0 -75.28 75.27 75.273 75.273 0 0 0 75.28-75.27z" fill="#e48e66"/><path d="m211.97 118.82a75.27 75.27 0 1 1 -75.27 75.27 75.273 75.273 0 0 1 75.27-75.27z" fill="#6fe3ff"/><g fill="#63316d"><path d="m293.25 194.09a81.275 81.275 0 1 0 -81.28 81.27 81.367 81.367 0 0 0 81.28-81.27zm-81.28 69.27a69.27 69.27 0 1 1 69.28-69.27 69.348 69.348 0 0 1 -69.28 69.27z"/><path d="m383.232 246.9a175.238 175.238 0 0 0 3.252-92.523 181.666 181.666 0 0 0 -45.744-84.077c-33.758-35.191-79.49-54.57-128.77-54.57-59.822 0-113.53 28.206-147.353 77.384-33.443 48.626-41.017 110.014-20.273 164.151 5.393 14.55 14.018 28.751 25.607 42.174l137.449 161.451a6 6 0 0 0 9.139 0l25.426-29.89a126.556 126.556 0 1 0 141.267-184.1zm-171.264 200.842-132.906-156.113c-10.677-12.367-18.572-25.332-23.489-38.6-19.35-50.504-12.273-107.745 18.927-153.115 31.555-45.874 81.659-72.184 137.47-72.184 45.981 0 88.637 18.068 120.11 50.874a169.65 169.65 0 0 1 42.723 78.52 163.228 163.228 0 0 1 -3.436 87.433 126.586 126.586 0 0 0 -145.207 125.173 125.377 125.377 0 0 0 10.061 49.5zm140.732 36.528a114.959 114.959 0 0 1 -103.976-66.442 113.438 113.438 0 0 1 -10.564-48.098 114.545 114.545 0 1 1 114.54 114.54z"/><path d="m418.457 322.408-81.908 81.907-27.7-27.688a6 6 0 1 0 -8.484 8.486l31.94 31.93a6 6 0 0 0 8.485 0l86.15-86.149a6 6 0 1 0 -8.486-8.485z"/></g></svg>