<svg xmlns="http://www.w3.org/2000/svg" viewBox="0 0 512 341.34"><defs><style>.cls-1{fill:#e5e5e5;}.cls-2{fill:#d80027;}.cls-3{fill:#2e52b2;}.cls-4{fill:#f0f0f0;}</style></defs><title>Asset 3</title><g id="Layer_2" data-name="Layer 2"><g id="Layer_1-2" data-name="Layer 1"><path class="cls-1" d="M0,0H512V341.34H0Z"/><path class="cls-2" d="M0,42.66H512V85.33H0ZM0,128H512v42.66H0Zm0,85.33H512V256H0Zm0,85.33H512v42.67H0Z"/><path class="cls-3" d="M0,0H256V183.8H0Z"/><path class="cls-4" d="M99.82,75.29,95.7,88H82.36l10.79,7.83L89,108.49l10.79-7.83,10.79,7.83-4.13-12.68L117.28,88H103.94Zm4.12,58.46-4.12-12.68L95.7,133.75H82.36l10.79,7.84L89,154.27l10.79-7.84,10.79,7.84-4.13-12.68,10.8-7.84Zm-56.36,0-4.12-12.68-4.12,12.68H26l10.79,7.84-4.12,12.68,10.79-7.84,10.78,7.84-4.12-12.68,10.79-7.84ZM43.46,75.29,39.34,88H26l10.79,7.83-4.12,12.68,10.79-7.83,10.78,7.83L50.12,95.81,60.91,88H47.58ZM99.82,29.52,95.7,42.2H82.36L93.15,50,89,62.72l10.79-7.83,10.79,7.83L106.48,50l10.8-7.84H103.94Zm-56.36,0L39.34,42.2H26L36.79,50,32.67,62.72l10.79-7.83,10.78,7.83L50.12,50,60.91,42.2H47.58ZM156.18,75.29,152.06,88H138.73l10.78,7.83-4.12,12.68,10.79-7.83L167,108.49l-4.12-12.68L173.64,88H160.3Zm4.12,58.46-4.12-12.68-4.12,12.68H138.73l10.78,7.84-4.12,12.68,10.79-7.84L167,154.27l-4.12-12.68,10.79-7.84Zm56.36,0-4.11-12.68-4.13,12.68H195.09l10.79,7.84-4.13,12.68,10.8-7.84,10.78,7.84-4.12-12.68L230,133.75Zm-4.11-58.46L208.42,88H195.09l10.79,7.83-4.13,12.68,10.8-7.83,10.78,7.83-4.12-12.68L230,88H216.66ZM156.18,29.52,152.06,42.2H138.73L149.51,50l-4.12,12.68,10.79-7.83L167,62.72,162.85,50l10.79-7.84H160.3Zm56.37,0L208.42,42.2H195.09L205.88,50l-4.13,12.68,10.8-7.83,10.78,7.83L219.21,50,230,42.2H216.66Z"/></g></g></svg>